<svg width="18" height="18" viewBox="0 0 18 18" fill="none" xmlns="http://www.w3.org/2000/svg">
<g clip-path="url(#clip0_5_4768)">
<path d="M7.45151 1.0109C6.612 1.0109 5.80748 1.18042 5.03793 1.51945C4.26838 1.85848 3.60377 2.31052 3.0441 2.87558C2.48443 3.44063 2.03508 4.11062 1.69605 4.88555C1.35702 5.66047 1.1875 6.46769 1.1875 7.3072C1.1875 7.78077 1.25208 8.27586 1.38123 8.79248C1.51039 9.3091 1.66107 9.78805 1.83327 10.2293C2.00548 10.6706 2.25303 11.1603 2.57591 11.6985C2.8988 12.2366 3.18671 12.6913 3.43964 13.0627C3.69256 13.434 4.03429 13.886 4.4648 14.4188C4.89532 14.9515 5.22897 15.3578 5.46575 15.6377C5.70254 15.9175 6.03619 16.305 6.4667 16.8001C6.59586 16.9508 6.69272 17.0584 6.7573 17.123C6.77883 17.1553 6.8165 17.1956 6.87031 17.244C6.92413 17.2925 7.02099 17.3544 7.16091 17.4297C7.30083 17.505 7.43536 17.5427 7.56452 17.5427H7.61295C7.91431 17.5427 8.18338 17.4028 8.42017 17.123C11.8643 13.1622 13.5864 9.8903 13.5864 7.3072C13.5864 5.50979 13.0375 4.01913 11.9396 2.83521C10.7988 1.61901 9.30273 1.0109 7.45151 1.0109ZM7.64524 16.4288C7.63448 16.4503 7.61295 16.4718 7.58066 16.4933C7.55914 16.4718 7.53761 16.4503 7.51609 16.4288L7.24163 16.122C6.83264 15.6484 6.51514 15.2798 6.28911 15.0161C6.06309 14.7524 5.74559 14.3677 5.3366 13.8618C4.92761 13.3559 4.60472 12.9281 4.36794 12.5783C4.13115 12.2285 3.8567 11.8034 3.54458 11.3029C3.23245 10.8025 2.99298 10.3504 2.82615 9.9468C2.65933 9.54319 2.51672 9.10729 2.39833 8.63911C2.27993 8.17092 2.22074 7.72695 2.22074 7.3072C2.22074 6.37083 2.45752 5.49634 2.93109 4.68374C3.40466 3.87114 4.04236 3.22806 4.8442 2.75449C5.64603 2.28092 6.51514 2.04414 7.45151 2.04414C8.30178 2.04414 9.06056 2.19213 9.72786 2.48811C10.3952 2.78409 10.9306 3.18501 11.3342 3.69086C11.7378 4.19672 12.0419 4.75639 12.2464 5.36988C12.4509 5.98336 12.5531 6.62914 12.5531 7.3072C12.5531 9.63199 10.9172 12.6725 7.64524 16.4288ZM7.40307 4.12676C7.06943 4.12676 6.74385 4.18058 6.42634 4.28821C6.10884 4.39583 5.82362 4.54382 5.57069 4.73217C5.31776 4.92053 5.09443 5.14386 4.9007 5.40217C4.70697 5.66047 4.55898 5.94569 4.45673 6.25782C4.35448 6.56994 4.30336 6.89283 4.30336 7.22648C4.30336 8.08751 4.60741 8.81939 5.21552 9.42211C5.82362 10.0248 6.5555 10.3262 7.41115 10.3262C8.2668 10.3262 8.99598 10.0248 9.59871 9.42211C10.2014 8.81939 10.5028 8.08751 10.5028 7.22648C10.5028 6.80672 10.4221 6.40581 10.2606 6.02372C10.0992 5.64164 9.87854 5.31337 9.59871 5.03892C9.31887 4.76446 8.98791 4.54382 8.60583 4.377C8.22375 4.21017 7.82283 4.12676 7.40307 4.12676ZM7.40307 9.29295C6.83264 9.29295 6.34293 9.08846 5.93394 8.67947C5.52495 8.27048 5.32045 7.78077 5.32045 7.21033C5.32045 6.6399 5.52226 6.15288 5.92587 5.74927C6.32948 5.34566 6.8165 5.14386 7.38693 5.14386C7.95736 5.14386 8.44439 5.34566 8.84799 5.74927C9.2516 6.15288 9.45341 6.6399 9.45341 7.21033C9.45341 7.92068 9.16819 8.48574 8.59776 8.90549C8.24258 9.1638 7.84435 9.29295 7.40307 9.29295Z" fill="white"/>
</g>
<defs>
<clipPath id="clip0_5_4768">
<rect width="17" height="17" fill="white" transform="matrix(1 0 0 -1 0.953125 17.6719)"/>
</clipPath>
</defs>
</svg>
