<svg width="21" height="21" viewBox="0 0 21 21" fill="none" xmlns="http://www.w3.org/2000/svg">
<g clip-path="url(#clip0_5_4773)">
<path d="M3.17061 20.9688C2.29629 20.9688 1.79668 20.5941 1.67178 19.9696C1.29707 18.9703 2.29629 18.3458 2.671 18.096C3.42041 17.5964 3.79512 17.2217 3.92002 16.847C3.92002 16.5972 3.79512 16.3474 3.54532 15.9727C3.54532 15.9727 3.54532 15.8478 3.42041 15.8478C2.17139 14.224 1.54688 12.2256 1.54688 10.2272C1.54688 5.10616 5.79356 0.984375 10.9146 0.984375C16.0356 0.984375 20.2822 5.10616 20.2822 10.2272C20.2822 15.3482 16.0356 19.4699 10.9146 19.4699C10.29 19.4699 9.66554 19.345 9.04103 19.2201C5.79356 20.8439 3.42041 20.9688 3.42041 20.9688C3.29551 20.9688 3.29551 20.9688 3.17061 20.9688ZM5.66866 14.5987C6.29317 15.4731 6.54297 16.4723 6.41807 17.3466C6.41807 17.4715 6.29317 17.7213 6.29317 17.8462C6.91768 17.5964 7.54219 17.3466 8.29161 16.9719C8.54142 16.847 8.79122 16.7221 9.04103 16.847H9.16593C9.66554 16.9719 10.29 17.0968 10.9146 17.0968C14.6616 17.0968 17.7842 14.0991 17.7842 10.3521C17.7842 6.60499 14.6616 3.48242 10.9146 3.48242C7.16749 3.48242 4.04492 6.48008 4.04492 10.2272C4.04492 11.726 4.54453 13.2248 5.54376 14.3489C5.54376 14.4738 5.66866 14.4738 5.66866 14.5987Z" fill="white"/>
</g>
<defs>
<clipPath id="clip0_5_4773">
<rect width="19.9844" height="19.9844" fill="white" transform="translate(0.921875 0.984375)"/>
</clipPath>
</defs>
</svg>
