<svg width="18" height="18" viewBox="0 0 18 18" fill="none" xmlns="http://www.w3.org/2000/svg">
<g clip-path="url(#clip0_5_4759)">
<path d="M4.51839 1.60825C5.13187 2.44775 5.85298 3.52404 6.68173 4.83712C6.88622 5.18153 6.85393 5.60666 6.58486 6.11252C6.49876 6.28473 6.24045 6.76367 5.80993 7.54937C5.89604 7.67852 5.99559 7.81306 6.1086 7.95298C6.22161 8.09289 6.3427 8.24088 6.47185 8.39694C6.60101 8.55301 6.74092 8.71176 6.8916 8.8732C7.04229 9.03465 7.20104 9.20416 7.36786 9.38175C7.53469 9.55934 7.70959 9.73962 7.89255 9.92259C8.83969 10.8697 9.62538 11.5693 10.2496 12.0214C10.9492 11.6124 11.4282 11.3433 11.6865 11.2141C11.9555 11.0635 12.2139 10.9881 12.4614 10.9881C12.6551 10.9881 12.822 11.0312 12.9619 11.1173C13.9198 11.6985 15.0068 12.4196 16.223 13.2806C16.4383 13.4528 16.5675 13.6788 16.6105 13.9587C16.6428 14.2493 16.5513 14.5614 16.336 14.895C16.2499 15.0242 16.0831 15.2395 15.8356 15.5408C15.6096 15.8207 15.2678 16.1758 14.8104 16.6063C14.353 17.0369 13.979 17.2521 13.6884 17.2521H13.6561C12.5475 17.2091 11.3152 16.7732 9.95903 15.9444C8.60291 15.1157 7.11763 13.8995 5.50319 12.2958C2.28508 9.06694 0.632978 6.3493 0.546875 4.14291C0.546875 3.85231 0.762133 3.47023 1.19265 2.99666C1.6124 2.54462 1.9622 2.20559 2.24203 1.97957C2.52187 1.76431 2.74789 1.59748 2.92009 1.47909C3.14612 1.31765 3.40981 1.23693 3.71117 1.23693C4.05558 1.23693 4.32465 1.3607 4.51839 1.60825ZM3.48515 2.27016C3.06539 2.57153 2.6564 2.92132 2.25818 3.31955C1.87071 3.70701 1.64469 3.99223 1.58011 4.1752C1.66622 6.11252 3.21338 8.58261 6.22161 11.5855C9.22985 14.5883 11.708 16.1435 13.6561 16.2512C13.8175 16.1866 14.092 15.9552 14.4794 15.557C14.8669 15.1587 15.2167 14.7444 15.5288 14.3138C15.5611 14.2708 15.5826 14.2304 15.5934 14.1928C15.6042 14.1551 15.6042 14.1201 15.5934 14.0878C14.3557 13.2268 13.3117 12.5272 12.4614 11.9891C12.3753 11.9891 12.2677 12.0214 12.1385 12.0859C12.0955 12.1075 11.9233 12.2043 11.6219 12.3765C11.3205 12.5487 11.0246 12.7102 10.734 12.8609L10.2012 13.1837L9.66843 12.8286C8.99037 12.3658 8.15625 11.6285 7.16606 10.6168C6.1974 9.63737 5.4709 8.80324 4.98657 8.11442L4.59911 7.61394L4.92199 7.04889C5.32022 6.32778 5.57853 5.85959 5.69692 5.64433C5.7615 5.51518 5.79379 5.40755 5.79379 5.32145C5.42785 4.74025 5.07267 4.18865 4.72826 3.66665C4.38385 3.14465 4.05558 2.65763 3.74346 2.20559H3.71117C3.62506 2.20559 3.54972 2.22711 3.48515 2.27016Z" fill="white"/>
</g>
<defs>
<clipPath id="clip0_5_4759">
<rect width="17" height="17" fill="white" transform="matrix(1 0 0 -1 0.3125 17.6719)"/>
</clipPath>
</defs>
</svg>
