<svg width="37" height="37" viewBox="0 0 37 37" fill="none" xmlns="http://www.w3.org/2000/svg">
<path opacity="0.15" d="M1.70605 18.2189C1.70605 27.5243 9.31963 35.1379 18.6251 35.1379C27.9306 35.1379 35.5442 27.5243 35.5442 18.2189C35.5442 8.91338 27.9306 1.2998 18.6251 1.2998C9.31963 1.2998 1.70605 8.91338 1.70605 18.2189Z" stroke="#1E2D78" stroke-width="1.8799" stroke-miterlimit="10"/>
<path d="M1.70605 18.2189C1.70605 27.5243 9.31963 35.1379 18.6251 35.1379C27.9306 35.1379 35.5442 27.5243 35.5442 18.2189C35.5442 8.91338 27.9306 1.2998 18.6251 1.2998C9.31963 1.2998 1.70605 8.91338 1.70605 18.2189Z" stroke="#1E2D78" stroke-width="1.8799" stroke-miterlimit="10" stroke-dasharray="142.87 142.87"/>
<path d="M16.0869 23.3885L21.2566 18.2188L16.0869 13.1431" stroke="#1E2D78" stroke-width="1.40992" stroke-miterlimit="10"/>
</svg>
