<svg width="16" height="17" viewBox="0 0 16 17" fill="none" xmlns="http://www.w3.org/2000/svg">
<path d="M13.6246 12.2032C13.3575 12.204 13.0937 12.2623 12.8511 12.3741C12.6084 12.4859 12.3927 12.6485 12.2184 12.851L4.20699 8.84506C4.26386 8.5869 4.26386 8.31946 4.20699 8.06131L12.2184 4.05537C12.5174 4.39069 12.9283 4.60564 13.3742 4.66002C13.8202 4.7144 14.2707 4.6045 14.6415 4.35085C15.0123 4.09721 15.278 3.71719 15.389 3.28186C15.4999 2.84652 15.4485 2.38567 15.2444 1.98548C15.0402 1.58528 14.6973 1.27314 14.2798 1.10741C13.8622 0.94168 13.3986 0.933714 12.9755 1.085C12.5525 1.23628 12.1991 1.53646 11.9813 1.92941C11.7636 2.32236 11.6964 2.78117 11.7923 3.22006L3.7809 7.226C3.53067 6.93693 3.19805 6.73128 2.82763 6.63659C2.45722 6.54191 2.06671 6.56272 1.70846 6.69625C1.3502 6.82977 1.04133 7.06962 0.823245 7.38365C0.605158 7.69767 0.488281 8.07086 0.488281 8.45318C0.488281 8.83551 0.605158 9.2087 0.823245 9.52272C1.04133 9.83675 1.3502 10.0766 1.70846 10.2101C2.06671 10.3436 2.45722 10.3645 2.82763 10.2698C3.19805 10.1751 3.53067 9.96943 3.7809 9.68037L11.7923 13.6863C11.7113 14.0655 11.7498 14.4604 11.9025 14.8168C12.0552 15.1732 12.3147 15.4734 12.6451 15.6762C12.9756 15.879 13.3608 15.9744 13.7477 15.9492C14.1346 15.924 14.5042 15.7795 14.8055 15.5356C15.1069 15.2917 15.3253 14.9603 15.4305 14.5871C15.5357 14.214 15.5227 13.8174 15.3932 13.4519C15.2637 13.0865 15.0241 12.7701 14.7074 12.5465C14.3906 12.3229 14.0124 12.2029 13.6246 12.2032ZM13.6246 1.89068C13.8101 1.89068 13.9913 1.94567 14.1455 2.04868C14.2997 2.1517 14.4198 2.29811 14.4908 2.46942C14.5617 2.64072 14.5803 2.82922 14.5441 3.01108C14.508 3.19294 14.4187 3.35998 14.2876 3.4911C14.1564 3.62221 13.9894 3.7115 13.8075 3.74767C13.6257 3.78384 13.4372 3.76528 13.2659 3.69432C13.0946 3.62336 12.9482 3.5032 12.8451 3.34903C12.7421 3.19486 12.6871 3.0136 12.6871 2.82818C12.6871 2.57954 12.7859 2.34109 12.9617 2.16527C13.1376 1.98946 13.376 1.89068 13.6246 1.89068ZM2.37465 9.39068C2.18923 9.39068 2.00797 9.3357 1.8538 9.23269C1.69963 9.12967 1.57947 8.98326 1.50851 8.81195C1.43755 8.64064 1.41899 8.45214 1.45516 8.27029C1.49134 8.08843 1.58062 7.92138 1.71173 7.79027C1.84285 7.65916 2.00989 7.56987 2.19175 7.5337C2.37361 7.49752 2.56211 7.51609 2.73341 7.58705C2.90472 7.658 3.05114 7.77817 3.15415 7.93234C3.25716 8.08651 3.31215 8.26776 3.31215 8.45318C3.31215 8.70182 3.21338 8.94028 3.03756 9.1161C2.86174 9.29191 2.62329 9.39068 2.37465 9.39068ZM13.6246 15.0157C13.4392 15.0157 13.258 14.9607 13.1038 14.8577C12.9496 14.7547 12.8295 14.6083 12.7585 14.4369C12.6876 14.2656 12.669 14.0771 12.7052 13.8953C12.7413 13.7134 12.8306 13.5464 12.9617 13.4153C13.0928 13.2842 13.2599 13.1949 13.4418 13.1587C13.6236 13.1225 13.8121 13.1411 13.9834 13.212C14.1547 13.283 14.3011 13.4032 14.4042 13.5573C14.5072 13.7115 14.5621 13.8928 14.5621 14.0782C14.5621 14.3268 14.4634 14.5653 14.2876 14.7411C14.1117 14.9169 13.8733 15.0157 13.6246 15.0157Z" fill="white" stroke="white" stroke-width="0.46875"/>
</svg>
